Full Credits to (Pitic):


 ######## ######## ######## ##          ######## ########  ######## ######
 ##       ##       ##       ##          ##       ##     ## ##       ##       
 ##       ##       ##       ##          ##       ##     ## ##       ##       
 ######   ######   ######   ##          ######   ########  ######   ######   
 ##       ##       ##       ##          ##       ##   ##   ##       ##       
 ##       ##       ##       ##          ##       ##    ##  ##       ##       
 ##       ######## ######## ########    ##       ##     ## ######## ######

Pirates.of.the.Caribbean.On.Stranger.Tides.TS.x264.Feel-Free


Genre:Action | Adventure | Fantasy 
 Language:English
 IMDb: 
http://www.imdb.com/title/tt1298650/
 Source:Piraty.Karibskogo.morya.4.2011.D.TS/Imagine Thanks!
 Subtitles:Romana

 Format : MPEG-4
 Format profile : Base Media
 Codec ID : isom
 File size : 1.27 GiB
 Duration : 2h 7mn
 Overall bit rate : 1 428 Kbps

 Video
 ID : 1
 Format : AVC
 Format/Info : Advanced Video Codec
 Format profile : High@L4.1
 Format settings, CABAC : Yes
 Format settings, ReFrames : 3 frames
 Codec ID : avc1
 Codec ID/Info : Advanced Video Coding
 Duration : 2h 7mn
 Bit rate mode : Variable
 Bit rate : 1 193 Kbps
 Maximum bit rate : 4 496 Kbps
 Width : 720 pixels
 Height : 272 pixels
 Display aspect ratio : 2.647
 Frame rate mode : Constant
 Frame rate : 23.976 fps
 Color space : YUV
 Chroma subsampling : 4:2:0
 Bit depth : 8 bits
 Scan type : Progressive
 Bits/(Pixel*Frame) : 0.254
 Stream size : 1.07 GiB (84%)
 Writing library : x264

 Audio
 ID : 2
 Format : AAC
 Format/Info : Advanced Audio Codec
 Format version : Version 4
 Format profile : LC
 Format settings, SBR : No
 Codec ID : 40
 Duration : 2h 7mn
 Bit rate mode : Variable
 Bit rate : 224 Kbps
 Maximum bit rate : 271 Kbps
 Channel(s) : 2 channels
 Channel positions : Front: L R
 Sampling rate : 48.0 KHz
 Stream size : 204 MiB (16%)


 Plot:
 Jack Sparrow and Barbossa embark on a quest to find the elusive fountain of youth, only to discover that Blackbeard and his daughter are after it too.


Greets:

 INK,CRYS,IMAGINE,LKRG,FXG,3Li,FLAWL3SS,TA,iLLUSiON,ViSiON,DTRG SAFCuk009,LU,TheFalcon007,MYSTiC,PrisM,Noir,WBZ,LAP,Rx,Kingdom,SAFCuk009+Fabreezy,HDLiTE,TWiZTED,ExtraTorrentRG.ELEKTRI4KA,MAGNAT,CM8
 And to all the other p2p grps past and present



================================== 
http://thepiratebay.org/user/hiest
==================================



Screenshots:
 
http://www.pix2links.com/images/08809352179595879489.png
 
http://www.pix2links.com/images/06940432837539971463.png
 
http://www.pix2links.com/images/13335296270604151970.png
 
http://www.pix2links.com/images/56524562619182285456.png
 
http://www.pix2links.com/images/05506837642559626815.png
 
http://www.pix2links.com/images/08555985179716069486.png
 
http://www.pix2links.com/images/05628760927119961841.png


Full Credits to (Pitic):


 ######## ######## ######## ##          ######## ########  ######## ######
 ##       ##       ##       ##          ##       ##     ## ##       ##       
 ##       ##       ##       ##          ##       ##     ## ##       ##       
 ######   ######   ######   ##          ######   ########  ######   ######   
 ##       ##       ##       ##          ##       ##   ##   ##       ##       
 ##       ##       ##       ##          ##       ##    ##  ##       ##       
 ##       ######## ######## ########    ##       ##     ## ######## ######